<?xml version="1.0" encoding="UTF-8"?><!DOCTYPE svg PUBLIC "-//W3C//DTD SVG 1.1//EN" "http://www.w3.org/Graphics/SVG/1.1/DTD/svg11.dtd"><svg xmlns="http://www.w3.org/2000/svg" xmlns:xlink="http://www.w3.org/1999/xlink"><defs/><symbol id="heart" viewBox="0 0 485.3 485.3"><path d="M349.6 28.95c-36.3 0-70.5 14.2-96.2 39.9l-10.6 10.6-10.8-10.8c-25.7-25.7-59.9-39.9-96.2-39.9-36.2 0-70.3 14.1-96 39.8S0 128.35 0 164.65s14.2 70.4 39.9 96.1l190.5 190.5.4.4c3.3 3.3 7.7 4.9 12 4.9 4.4 0 8.8-1.7 12.1-5l190.5-190.5c25.7-25.7 39.9-59.8 39.9-96.1s-14.1-70.5-39.8-96.1c-25.6-25.8-59.7-39.9-95.9-39.9zm71.6 207.8-178.3 178.4-178.7-178.7c-19.2-19.2-29.8-44.7-29.9-71.9 0-27.1 10.5-52.6 29.7-71.8 19.2-19.1 44.7-29.7 71.7-29.7 27.2 0 52.7 10.6 72 29.9l22.9 22.9c6.4 6.4 17.8 6.4 24.3 0l22.8-22.8c19.2-19.2 44.8-29.8 71.9-29.8s52.6 10.6 71.8 29.8c19.2 19.2 29.8 44.7 29.7 71.9 0 27.1-10.6 52.6-29.9 71.8z"/></symbol><symbol id="movie"><path d="M346.975 336.987c-4.154-4.254-12.083-13.256-18.521-25.729-12.082-23.414-13.847-48.069-5.248-73.283 8.869-26.002 13.198-50.95 12.867-74.155l.011-.896C336.083 73.087 262.997 0 173.161 0 83.326.001 10.239 73.088 10.239 162.925c0 89.835 73.086 162.922 162.922 162.922 44.907 0 86.735-17.883 117.779-50.354.958 16.992 5.65 33.58 13.948 49.299 8.421 15.955 18.563 27.145 23.86 32.395a4.996 4.996 0 0 0 3.741 1.443 5.001 5.001 0 0 0 3.599-1.766l11.126-13.152a5.006 5.006 0 0 0-.239-6.725zM103.896 122.934c-4.748 8.225-13.604 13.334-23.113 13.334a26.655 26.655 0 0 1-13.305-3.575c-6.167-3.561-10.579-9.31-12.421-16.188-1.843-6.878-.896-14.063 2.665-20.231C62.47 88.049 71.326 82.94 80.835 82.94c4.651 0 9.252 1.236 13.303 3.574 12.731 7.354 17.109 23.693 9.758 36.42zm-48.84 86.409c1.843-6.878 6.254-12.626 12.42-16.188a26.676 26.676 0 0 1 13.307-3.575c9.507 0 18.364 5.108 23.113 13.334 7.351 12.729 2.973 29.065-9.756 36.419a26.658 26.658 0 0 1-13.306 3.576c-9.508 0-18.364-5.109-23.113-13.336-3.561-6.166-4.507-13.351-2.665-20.23zm118.105 33.56c7.122 0 13.816 2.771 18.853 7.81 5.034 5.035 7.808 11.729 7.808 18.854 0 14.7-11.959 26.659-26.659 26.659-14.699 0-26.658-11.959-26.658-26.659-.001-14.702 11.957-26.664 26.656-26.664zm0-159.959c-14.699 0-26.658-11.959-26.658-26.659 0-14.701 11.959-26.661 26.658-26.661 14.7 0 26.659 11.96 26.659 26.661 0 14.7-11.959 26.659-26.659 26.659zm0 45.176c19.192 0 34.807 15.613 34.807 34.806 0 19.19-15.613 34.804-34.807 34.804-19.191 0-34.804-15.612-34.804-34.804.001-19.193 15.613-34.806 34.804-34.806zm105.687 4.572a26.666 26.666 0 0 1-13.309 3.576c-9.508 0-18.364-5.109-23.114-13.335-7.352-12.728-2.974-29.064 9.757-36.418a26.647 26.647 0 0 1 13.306-3.576c9.509 0 18.366 5.109 23.115 13.334 7.35 12.732 2.973 29.068-9.755 36.419zm-36.422 70.223c4.749-8.225 13.604-13.334 23.112-13.334 4.653 0 9.254 1.236 13.309 3.576 6.152 3.554 10.56 9.304 12.403 16.188 1.848 6.89.905 14.072-2.647 20.229-4.749 8.226-13.606 13.334-23.115 13.334-4.65 0-9.252-1.235-13.303-3.573-12.731-7.354-17.108-23.691-9.759-36.42z"/></symbol></svg>